<?xml version="1.0" encoding="UTF-8"?>
<svg width="388px" height="80px" viewBox="0 0 388 80" version="1.1" xmlns="http://www.w3.org/2000/svg" xmlns:xlink="http://www.w3.org/1999/xlink">
    <!-- Generator: Sketch 51 (57462) - http://www.bohemiancoding.com/sketch -->
    <title>logo-global</title>
    <desc>Created with Sketch.</desc>
    <defs></defs>
    <g id="Page-1" stroke="none" stroke-width="1" fill="none" fill-rule="evenodd">
        <g id="logo-global" fill="#00148c" fill-rule="nonzero">
            <path d="M387.6777,63.6587 L377.4217,63.6587 L377.4217,58.6177 L377.2677,58.6177 C374.7217,63.1387 370.0787,64.7147 365.7337,64.7147 C353.9107,64.7147 348.9577,54.1807 348.9577,43.1857 C348.9577,29.3337 356.7427,22.5607 365.5087,22.5607 C372.2527,22.5607 375.3977,26.2507 377.0427,28.8117 L377.1887,28.8117 L377.1887,9.6117 L387.6777,9.6117 L387.6777,63.6587 Z M368.3577,56.0607 C375.0247,56.0607 377.6487,50.4867 377.6487,44.5447 C377.6487,38.1417 375.8487,31.6707 368.6587,31.6707 C361.9907,31.6707 359.7477,37.6177 359.7477,43.9387 C359.7477,48.6867 361.6127,56.0607 368.3577,56.0607 Z" id="Fill-25"></path>
            <polygon id="Fill-1" points="336.9348 0.0001 329.2398 7.7341 336.9348 15.4721 344.6408 7.7341"></polygon>
            <polygon id="Fill-2" points="331.716 63.6433 342.187 63.6433 342.187 23.3413 331.716 23.3413"></polygon>
            <path d="M301.3877,23.6153 L311.4167,23.6153 L311.4167,30.5453 L311.5717,30.5453 C313.7447,26.4743 316.1397,22.5593 322.5087,22.5593 C323.1777,22.5593 323.8607,22.6343 324.5297,22.7103 L324.5297,33.4013 C323.6337,33.2513 322.5087,33.2513 321.5327,33.2513 C313.3727,33.2513 311.8677,38.3683 311.8677,42.8103 L311.8677,63.6593 L301.3877,63.6593 L301.3877,23.6153 Z" id="Fill-24"></path>
            <path d="M292.3994,23.6153 L292.3994,61.5533 C292.3994,68.4803 291.8714,79.9993 272.2514,79.9993 C264.0104,79.9993 255.3264,76.4603 254.8744,67.9523 L266.2554,67.9523 C266.7134,69.9843 267.5324,72.0123 273.6014,72.0123 C279.2154,72.0123 281.9094,69.3053 281.9094,62.8293 L281.9094,58.0163 L281.7634,57.8653 C280.0474,60.9543 277.4174,63.8843 271.1314,63.8843 C261.5454,63.8843 253.9744,57.1873 253.9744,43.1853 C253.9744,29.3343 261.7664,22.5593 270.5224,22.5593 C277.9434,22.5593 280.9374,26.9283 282.2114,29.5623 L282.3644,29.5623 L282.3644,23.6153 L292.3994,23.6153 Z M273.0744,55.0073 C280.1934,55.0073 281.9874,48.9023 281.9874,43.4063 C281.9874,36.9403 278.8424,31.6703 272.9974,31.6703 C269.1034,31.6703 264.7564,34.5343 264.7564,43.8653 C264.7564,48.9823 266.8574,55.0073 273.0744,55.0073 Z" id="Fill-23"></path>
            <polygon id="Fill-21" points="241.847 63.6583 246.556 63.6583 246.556 9.9133 241.847 9.9133"></polygon>
            <path d="M199.8994,36.7119 C200.3574,27.6079 206.7154,23.6889 215.5514,23.6889 C222.3684,23.6889 229.7814,25.7959 229.7814,36.1889 L229.7814,56.8089 C229.7814,58.6169 230.6794,59.6699 232.5544,59.6699 C233.0794,59.6699 233.6774,59.5219 234.0574,59.3669 L234.0574,63.3579 C233.0044,63.5839 232.2454,63.6589 230.9814,63.6589 C226.1844,63.6589 225.4374,60.9539 225.4374,56.8899 L225.2884,56.8899 C221.9934,61.9279 218.6264,64.7929 211.2084,64.7929 C204.0994,64.7929 198.2544,61.2529 198.2544,53.4249 C198.2544,42.5069 208.8104,42.1339 218.9984,40.9289 C222.8914,40.4779 225.0634,39.9499 225.0634,35.6599 C225.0634,29.2619 220.4914,27.6759 214.9474,27.6759 C209.1154,27.6759 204.7684,30.3899 204.6184,36.7119 L199.8994,36.7119 Z M225.0634,42.4339 L224.9154,42.4339 C224.3134,43.5669 222.2184,43.9369 220.9454,44.1649 C212.9294,45.5949 202.9734,45.5229 202.9734,53.1209 C202.9734,57.8649 207.1704,60.7979 211.5884,60.7979 C218.7744,60.7979 225.1414,56.2069 225.0634,48.6079 L225.0634,42.4339 Z" id="Fill-20"></path>
            <path d="M160.0518,24.8213 L164.7758,24.8213 L164.7758,31.5163 L164.9258,31.5163 C166.6558,26.8523 171.8128,23.6883 177.2858,23.6883 C188.1488,23.6883 191.4428,29.4123 191.4428,38.6683 L191.4428,63.6593 L186.7248,63.6593 L186.7248,39.4203 C186.7248,32.7243 184.5528,27.6823 176.9058,27.6823 C169.4118,27.6823 164.9258,33.4013 164.7758,41.0013 L164.7758,63.6593 L160.0518,63.6593 L160.0518,24.8213 Z" id="Fill-18"></path>
            <path d="M153.0869,44.2403 C153.0869,55.3823 146.6509,64.7933 134.8199,64.7933 C122.9799,64.7933 116.5419,55.3823 116.5419,44.2403 C116.5419,33.0983 122.9799,23.6873 134.8199,23.6873 C146.6509,23.6873 153.0869,33.0983 153.0869,44.2403 M121.2629,44.2403 C121.2629,52.5183 125.7559,60.7993 134.8199,60.7993 C143.8789,60.7993 148.3739,52.5183 148.3739,44.2403 C148.3739,35.9593 143.8789,27.6743 134.8199,27.6743 C125.7559,27.6743 121.2629,35.9593 121.2629,44.2403" id="Fill-17"></path>
            <polygon id="Fill-16" points="104.704 17.5163 109.433 17.5163 109.433 9.9103 104.704 9.9103"></polygon>
            <polygon id="Fill-15" points="104.704 63.6593 109.433 63.6593 109.433 24.8153 104.704 24.8153"></polygon>
            <path d="M88.3018,24.815 L96.1698,24.815 L96.1698,28.803 L88.3018,28.803 L88.3018,55.004 C88.3018,58.086 88.7548,59.89 92.1258,60.121 C93.4738,60.121 94.8228,60.045 96.1698,59.89 L96.1698,63.96 C94.7448,63.96 93.3968,64.109 91.9718,64.109 C85.6878,64.109 83.5148,62.002 83.5868,55.377 L83.5868,28.803 L76.8438,28.803 L76.8438,24.815 L83.5868,24.815 L83.5868,13.149 L88.3018,13.149 L88.3018,24.815 Z" id="Fill-11"></path>
            <path d="M39.8486,36.7119 C40.2896,27.6079 46.6596,23.6889 55.4986,23.6889 C62.3156,23.6889 69.7276,25.7959 69.7276,36.1889 L69.7276,56.8089 C69.7276,58.6169 70.6226,59.6699 72.5026,59.6699 C73.0266,59.6699 73.6236,59.5219 74.0016,59.3669 L74.0016,63.3579 C72.9486,63.5839 72.2026,63.6589 70.9266,63.6589 C66.1376,63.6589 65.3886,60.9539 65.3886,56.8899 L65.2396,56.8899 C61.9376,61.9279 58.5706,64.7929 51.1576,64.7929 C44.0386,64.7929 38.1906,61.2529 38.1906,53.4249 C38.1906,42.5069 48.7606,42.1339 58.9436,40.9289 C62.8406,40.4779 65.0086,39.9499 65.0086,35.6599 C65.0086,29.2619 60.4386,27.6759 54.8976,27.6759 C49.0586,27.6759 44.7166,30.3899 44.5606,36.7119 L39.8486,36.7119 Z M65.0086,42.4339 L64.8646,42.4339 C64.2586,43.5669 62.1626,43.9369 60.8976,44.1649 C52.8746,45.5949 42.9136,45.5229 42.9136,53.1209 C42.9136,57.8649 47.1186,60.7979 51.5296,60.7979 C58.7166,60.7979 65.0856,56.2069 65.0086,48.6079 L65.0086,42.4339 Z" id="Fill-7"></path>
            <path d="M0,24.8213 L4.719,24.8213 L4.719,31.5163 L4.868,31.5163 C6.587,26.8523 11.764,23.6883 17.225,23.6883 C28.087,23.6883 31.381,29.4123 31.381,38.6683 L31.381,63.6593 L26.662,63.6593 L26.662,39.4203 C26.662,32.7243 24.49,27.6823 16.853,27.6823 C9.36,27.6823 4.868,33.4013 4.719,41.0013 L4.719,63.6593 L0,63.6593 L0,24.8213 Z" id="Fill-3"></path>
        </g>
    </g>
</svg>